<svg width="36" height="31" viewBox="0 0 36 31" fill="none" xmlns="http://www.w3.org/2000/svg">
<path d="M31.2602 3.91481C30.494 3.14832 29.5844 2.54028 28.5832 2.12543C27.582 1.71059 26.5089 1.49707 25.4252 1.49707C24.3414 1.49707 23.2683 1.71059 22.2671 2.12543C21.266 2.54028 20.3563 3.14832 19.5902 3.91481L18.0002 5.50481L16.4102 3.91481C14.8626 2.36727 12.7637 1.49787 10.5752 1.49787C8.38663 1.49787 6.28772 2.36727 4.74018 3.91481C3.19264 5.46235 2.32324 7.56126 2.32324 9.74981C2.32324 11.9384 3.19264 14.0373 4.74018 15.5848L6.33018 17.1748L18.0002 28.8448L29.6702 17.1748L31.2602 15.5848C32.0267 14.8187 32.6347 13.909 33.0496 12.9078C33.4644 11.9067 33.6779 10.8335 33.6779 9.74981C33.6779 8.66608 33.4644 7.59296 33.0496 6.59178C32.6347 5.59059 32.0267 4.68094 31.2602 3.91481V3.91481Z" stroke="#FCFCFC" stroke-width="3.00312" stroke-linecap="round" stroke-linejoin="round"/>
</svg>
