<svg width="749" height="382" viewBox="0 0 749 382" fill="none" xmlns="http://www.w3.org/2000/svg">
<g id="loading">
<path id="letter_g" d="M547.872 57.7373L499.208 104.771C473.765 83.4017 458.393 73.4152 403.45 73.4152C348.507 73.4152 301.413 117.313 301.413 192.568C301.413 267.823 367.345 308.585 412.869 308.585C458.393 308.585 464.645 299.796 488.219 278.797V225.492H403.45V158.076H562V317.992C512.53 361.185 497.638 376 403.45 376C309.262 376 224.493 319.559 218.214 192.568C211.935 65.5763 345.368 5.99914 412.869 6C480.37 6.00086 503.33 15.2848 547.872 57.7373Z" fill="#E8E288" stroke="#E8E288"/>
<path id="letter_c" d="M547.872 57.7373L499.208 104.771C473.765 83.4017 458.393 73.4152 403.45 73.4152C348.507 73.4152 301.413 117.313 301.413 192.568C301.413 267.823 367.345 308.585 412.869 308.585C458.393 308.585 487 293 494 280.5L499.208 269.5L513.5 280.5L531 297L555 319C505.53 362.193 497.638 376 403.45 376C309.262 376 224.493 319.559 218.214 192.568C211.935 65.5763 345.368 5.99914 412.869 6C480.37 6.00086 503.33 15.2848 547.872 57.7373Z" fill="#E8E288" stroke="#E8E288"/>
</g>
</svg>
